<svg id="Layer_1" data-name="Layer 1" xmlns="http://www.w3.org/2000/svg" xmlns:xlink="http://www.w3.org/1999/xlink" viewBox="0 0 592.58 653.46"><defs><style>.cls-1{fill:url(#linear-gradient);}.cls-2{fill:#46b4a5;}.cls-3{fill:#84cfc8;}.cls-4{fill:#409897;}.cls-5{fill:url(#linear-gradient-2);}.cls-6{fill:#3b857e;}</style><linearGradient id="linear-gradient" x1="373.24" y1="36.03" x2="219.63" y2="303.07" gradientUnits="userSpaceOnUse"><stop offset="0" stop-color="#46b4a5"/><stop offset="0.21" stop-color="#48baac"/><stop offset="0.52" stop-color="#4dccbf"/><stop offset="0.89" stop-color="#55e8de"/><stop offset="1" stop-color="#58f2e9"/></linearGradient><linearGradient id="linear-gradient-2" x1="12.98" y1="446.1" x2="268.2" y2="446.1" xlink:href="#linear-gradient"/></defs><title>3_asset</title><polygon class="cls-1" points="407.67 55.83 185.6 55.48 65.23 169.17 185.24 283.29 407.31 283.64 527.64 169.91 407.67 55.83"/><polygon class="cls-2" points="433.12 425.48 579.6 273.19 527.64 169.91 407.31 283.64 433.12 425.48"/><polygon class="cls-3" points="158.94 425.04 12.98 272.28 65.23 169.17 185.24 283.29 158.94 425.04"/><polygon class="cls-4" points="407.31 283.64 185.24 283.29 158.94 425.04 433.12 425.48 407.31 283.64"/><polygon class="cls-5" points="158.94 425.04 12.98 272.28 241.78 599.05 268.2 619.91 158.94 425.04"/><polygon class="cls-6" points="349.73 599.22 579.6 273.19 433.12 425.48 323.23 620 349.73 599.22"/><polygon class="cls-2" points="323.23 620 433.12 425.48 158.94 425.04 268.2 619.91 323.23 620"/></svg>